<svg xmlns="http://www.w3.org/2000/svg" xmlns:xlink="http://www.w3.org/1999/xlink" width="150" height="63.001" viewBox="0 0 150 63.001"><defs><style>.a{fill:#ebfd36;}.b,.c{fill:none;}.c{stroke:#fff;stroke-linecap:square;stroke-width:2px;}.d{fill:#fff;font-size:16px;font-family:RocGrotesk-Bold, Roc Grotesk;font-weight:700;letter-spacing:0.01em;}.e{clip-path:url(#a);}</style><clipPath id="a"><path class="a" d="M321.213,289.036c-1.177-.731-2.084-1.345-3.036-1.876-4.981-2.775-10.436-4.065-15.968-5.011a12.627,12.627,0,0,0-5.135.026c-4.2,1.088-4.528,3.74-1.973,7.246,1.036,1.42,2.111,1.775,3.076,1.488a18.074,18.074,0,0,1-2.912-2.982c-1.512-2.451-.495-4.474,2.354-4.493a28.332,28.332,0,0,1,7.345.9,48.847,48.847,0,0,1,16.8,7.706,2.793,2.793,0,0,0,2.266.021c.3-.113.4-1.185.325-1.79-.105-.891-.51-1.741-.668-2.631-.337-1.893.436-3.169,2.3-3.246a16.461,16.461,0,0,1,5.621.548,103.155,103.155,0,0,1,10.639,4.125c3.636,1.633,6.77,1.484,9.712-1.481,2.522-2.542,5.926-3.192,9.253-3.181,7.024.023,14.055.279,21.068.694,10.611.627,21.2,1.572,31.814,2.189,8.183.476,16.382.657,24.574.968,2.56.1,2.81-.023,3.807-2.084a16.5,16.5,0,0,0-3.52-1.135c-3.841-.342-7.7-.467-11.549-.723-6.428-.428-12.852-.921-19.281-1.334-8.493-.547-16.99-1.011-25.482-1.575-5.11-.339-10.211-1.081-15.319-1.114a65.125,65.125,0,0,0-11.57,1.288,10.619,10.619,0,0,0-6.271,3.85,4.2,4.2,0,0,1-5.252,1.345c-3.1-1.226-6.143-2.6-9.294-3.657-2.556-.86-5.048-2-7.957-1.526-4.449.732-5.729,1.992-5.773,6.464C321.212,288.264,321.213,288.476,321.213,289.036Z" transform="translate(-293.481 -282.803)"/></clipPath></defs><g transform="translate(59 31.001)"><path class="b" d="M0,0H32V32H0Z"/><g transform="translate(24 12) rotate(90)"><path class="c" d="M8,8,0,0,8,8,0,16Z"/></g></g><text class="d" transform="translate(0 12)"><tspan x="0" y="0">Hier geht es weiter</tspan></text><g class="e" transform="translate(0 21.515)"><rect class="a" width="149" height="12" transform="translate(0 -4.863)"/></g></svg>