<svg xmlns="http://www.w3.org/2000/svg" width="840" height="969.2" viewBox="0 0 840 969.2"><defs><style>.a{fill:#001e57;opacity:0.249;}</style></defs><path class="a" d="M1867.218,403.384s-9.745,14.23-26.146,16.507c-15.864,2.277-29.688,10.246-27.022,27.806,0,0-38.827-27.151-34.714-44.284s20.579-22.483,37.634-30.168c17.053-7.627,27.038-15.938,24.641-40.7,0,0-3.463,20.064-21.419,21.544-17.948,1.508-46.175-11.5-61.474-5.009-15.3,6.546-28.207,20.093-24.084,44.91,0,0-20.629-8.823-22.388-35.433s1.2-52,63.51-70.3c62.352-18.328,51.782-50.232,51.782-50.232s-2.388,14.8-32.952,17.731c-30.608,2.96-39.433-7.684-64.146,7.684l16.423-16.507s-37.58-6.973-52.286,11.782c0,0,12.351-37.852,68.841-46.675,56.391-8.88,85.291-39.9,90.516-71.492,5.157-31.022,1.75-62.612-4.717-77.412,0,0-11.732,37.852-59.97,54.359,0,0,4.7-13.576,1.7-31.875,0,0-3.457.569-26.993,11.783-23.538,11.242-69.422,26.013-58.271,90.987,0,0-57.266,38.99-52.321,129.323,4.985,90.361,131.163,145.915,131.163,145.915s46.46,30.168,27.62,73.285c-18.794,43.117-34.1,43.117-92.357,43.117,0,0,22.434-37.055-10.373-63.352-33.448-26.753-39.516-30.566-75.386-51.228-35.9-20.691-74.72-48.468-75.291-52,0,0,13.025-1.707,15.58-14.515,0,0-16.144-16.848-14.4-34.238,0,0,18.827,7.4,30.62,5.037,0,0-5.9-33.014,6.416-47.813,12.422-14.8,15.966-29.542,15.966-33.1h31.167s-11.765-17.133-10.616-29.542,11.782-57.916,1.145-81.538c0,0,23.509-.569,29.468-8.253,0,0-22.386-22.484-27.7-37.852s-12.372-34.238-17.659-36.6c0,0,15.3-9.477,16.5-16.564,0,0-29.41-17.133-35.885-22.484-6.536-5.265-8.857-5.265-8.857-5.265s17.06-7.115,16.149-16.222c0,0-22.668.854-33.785-9.193,0,0-.546-6.489-8.176-16.507-7.665-10.075-22.982-11.839-34.743-3.586,0,0-32.882-5.891-42.3,5.92,0,0-68.848-.569-79.943,41.353,0,0-49.294,14.23-38.819,51.4,0,0-11.166,34.266,24.067,42.548,35.306,8.253,36.844-22.483,38.18-25.984,0,0,27.182,1.765,32.461,23.622.353,1.423.656,2.846.913,4.212a162.063,162.063,0,0,0-68.514,8.2c-37.1,13.006-47.6,5.977-56.144-2.561-8.5-8.595-8.5-22.114,5.016-36.429,0,0-24.576-11.526-34.771,14.8-11.811,30.623,17.788,47.187,41.789,47.244,26.358,0,39.943-9.477,66.467-15.368,22.39-5.009,41.263-2.931,46.47-1.594-1.7,9.477-7.738,14.4-15.868,15.169-12.415,1.2-27.2-6.347-39.719.285-9.44,5.037-8.383,23.622,4.233,28.546,13.131,5.123,18.987-9.335,28.047-7.257,9.12,2.049,10.382,12.295,9.12,16.222-2.488,7.969-23.511,27.777-64.071-2.334,0,0-11.216-9.449-22.953-11.811v28.375a46.968,46.968,0,0,1-42.934-17.873s-21.321,5.607-21.481,22.882c0,0-45.554-13.291-75.563-45.195-29.948-31.875-46.391-57.888-46.391-57.888s-11.781-15.539.618-31.762c0,0,10.286-16.308-7.713-26.126,0,0-6.117-21.544-24.851-23.138a32.822,32.822,0,0,0-28.645,11.9s17.277,9.392,16.229,16.308c-.861,5.863-6.532,10.587-6.532,10.587s-2.652-13.149-15.578-12.1c0,0-16.159-22.313-36.482-10.046,0,0-10.012,5.294-11.178,23.622,0,0,19.425-1.765,18.821,3.529,0,0-10.4,11.1-2.266,22.427a35.615,35.615,0,0,0,16.381,12.437s-21.9-5.891-29.4,7.115c0,0-30.72,3.984-25.432,36.429,0,0,2.839,10.673,13.09,22.028,0,0-2.627-18.3,11.475-20.093,0,0,8.894,12.067,22.674,6.546,0,0-8.954,17.56,8.79,25.386a18.666,18.666,0,0,1-18.265,9.449s14.8,25.187,32.378,20.377c0,0,13.142-4.639,20.579-20.377l4.422-4.411s34.275,51.058,26.557,80.6c0,0,19.151,4.127,25.441-8.253,0,0,10.048,39.56-5.277,60.222,0,0,25.287,8.88,33.509-7.684,0,0,19.991,28.375-5.865,33.1l4.7,12.437s-39.444,29.542-74.7,38.421c-35.3,8.823-34.893,16.877-48.854,2.334-11.052-11.555-17.072-4.155-17.072-4.155s-32.645-13.291-43.525,20.662c0,0,19.44-1.138,21.813,4.725,0,0-2.2,16.848,10,18.328,0,0-21.865,1.935-18.806,22.2,0,0-31.351,14.23,4.085,49.236,0,0,2.937-18.3,10.6-19.5,0,0,7.223,5.777,12.357,0,0,0-12.357,19.353,5.289,30.737,0,0-4.074,22.427,25.617,25.671,0,0,.3-18.585,5-23.907,0,0,17.819-3.7,15.312-20.719,0,0-1.758-4.753,2.948-11.242,0,0,4.109,14.173,17.045,10.644,0,0,6.524,14.714,10.606,18.271,0,0,19.429-7.542,18.8-24.191,0,0,21.309-8.623,8.221-31.363,0,0,38.228-21.26,75.266,10.616,0,0,12.382-.484,12.382-14.429,0,0,21.427,7.969,21.861,22,0,0,21.04-7.627,19.849-25.33,0,0,36.476-5.322,41.759,13.6,0,0,12.341-4.155,11.753-18.9,0,0,34.675,51.4,139.953,60.848l-9.759,9.733-3.185,3.273s-79.053-4.184-112.373,12.949c-33.561,17.275-56.082,29.826-61.583,98.187,0,0,2.212,24.106-11.878,37.084,0,0,6.5,10.644,15.285,10.644,0,0-10.61,17.731-37.676,22.483-27.092,4.753-31.732,1.622-36.1-4.468-5.377-7.4-12.7-10.046-20.922-5.322,0,0-4.117-4.411-12.369-6.83-8.224-2.334-30.541,1.821-30.541,26.639,0,0,15.3-4.155,19.946,0l2.371,10.616s-23.656-11.811-32.845,6.546c0,0-47.7,11.811-13.619,57.29,0,0,5.337-18.9,17.371-17.361,0,0,8.082,8.68,18.545,4.354,0,0-13.229,19.211,4.138,29.542,0,0,0,14.8,18.2,26.013,0,0,15.312-7.115,17.348-17.418,0,0,27.925-2.647,25-33.384,0,0,10.021-1.793,13.532-4.155,0,0,.569,14.173,20.85,20.947,0,0,6.24,9.164,0,16.222,0,0,32.621,0,29.122-24.191,0,0,11.191-4.724,8.219-22.483,0,0,40-12.409,48.2-23.053l7.651,13.661s22.048-7.969,28.211-21.288l2.967,24.76s51.757-35.12,48.809-72.63c-2.605-33.64-14.08-41.353-13.509-52.595.563-11.213,19.99-41.352,50.6-33.071,0,0-7.091,43.146,16.414,72.687,23.522,29.485,40.568,43.117,40.568,53.733v17.133s21.183-6.489,22.39-11.213c0,0,8.22,30.168,22.907,30.737,0,0,6.5-14.8,18.265-24.817,0,0-1.7,36.429-22.835,54.644-19.819,17.019-32.49,22.768-52.51,18.584,0,0-10.871-15.027-26.472-7.684,0,0-27.028-11.213-39.952,11.839,0,0-7.078,13.86,0,31.306,0,0,11.16-16.507,18.228-12.978,0,0,0,11.811,10.017,13.006,0,0-20.56,7.115-12.419,29.513,0,0-30.573,18.9,0,46.675,0,0,1.153-12.978,21.465-21.544,0,0,13.789,5.578,26.134-4.44l12.947,13.035c4.158,4.127,11.758,23.622,9.411,29.513,0,0,27.657-11.384,27.022-30.737,0,0,21.193-7.2,15.922-28.944,0,0,15.308-4.724,12.951-18.3,0,0,7.369,12.978,23.507,6.489,0,0,15.864,7.115,15.568,15.653,0,0,25.015-7.969,16.734-34.522,0,0,11.332-19.239-7.02-28.375,0,0,23.505-19.5,25.9-31.306,0,0,9.253,12.978,15.146,12.978,0,0,12.477-7.684,11.9-21.288,0,0,21.755,13.6,40.6-11.242,0,0-18.255-8.253-8.224-42.519,0,0,15.3-39.731-7.171-52.509-19.647-11.242-29.387-8.993-51.072-.655,0,0-43.624,14.913-41.161-47.244,0,0,.564-26.61,32.3-45.536,0,0,49.387,24.846,94.1,0,0,0,29.407,13.177,45.9-.569,18.516-15.482,25.833-33.071,36.707-38.08,0,0-22.04-12.409-30.876-6.2,0,0,17.055-16.564,11.181-62.043-5.879-45.536,10.573-43.146,19.7-59.083,9.21-15.852.081-41.836.081-41.836" transform="translate(-1031.252 0)"/></svg>