<svg xmlns="http://www.w3.org/2000/svg" width="227.999" height="48" viewBox="0 0 227.999 48"><defs><style>.a,.b{fill:#fff;}.a{font-size:20px;font-family:RocGrotesk-Bold, Roc Grotesk;font-weight:700;}</style></defs><text class="a" transform="translate(57.999 17)"><tspan x="0" y="0">Sicherheitsportal</tspan><tspan x="0" y="24">Hessen</tspan></text><path class="b" d="M1073.051,19.978a2.1,2.1,0,0,1-1.307.818c-.793.113-1.484.507-1.351,1.377,0,0-1.941-1.345-1.736-2.193s1.029-1.114,1.882-1.494a1.7,1.7,0,0,0,1.232-2.016s-.173.994-1.071,1.067-2.309-.569-3.074-.248a1.888,1.888,0,0,0-1.2,2.224,2.045,2.045,0,0,1-1.119-1.755c-.088-1.318.06-2.575,3.176-3.481s2.589-2.488,2.589-2.488-.119.733-1.647.878-1.972-.381-3.207.381l.821-.818s-1.879-.345-2.614.584c0,0,.617-1.875,3.442-2.312s4.265-1.976,4.526-3.541a7.761,7.761,0,0,0-.236-3.834,4.644,4.644,0,0,1-3,2.692,3.491,3.491,0,0,0,.085-1.579,9.458,9.458,0,0,0-1.35.584c-1.177.557-3.471,1.288-2.914,4.506a7.229,7.229,0,0,0-2.616,6.4c.249,4.475,6.558,7.227,6.558,7.227s2.323,1.494,1.381,3.629-1.7,2.135-4.618,2.135a2.411,2.411,0,0,0-.519-3.138,21.707,21.707,0,0,0-3.769-2.537,21.127,21.127,0,0,1-3.765-2.575.943.943,0,0,0,.779-.719,2.549,2.549,0,0,1-.72-1.7,3.576,3.576,0,0,0,1.531.249s-.295-1.635.321-2.368a3.238,3.238,0,0,0,.8-1.639h1.558a2.9,2.9,0,0,1-.531-1.463c.057-.615.589-2.868.057-4.038,0,0,1.175-.028,1.473-.409a7.168,7.168,0,0,1-1.385-1.875c-.266-.761-.619-1.7-.883-1.813,0,0,.765-.469.825-.82,0,0-1.47-.849-1.794-1.114s-.443-.261-.443-.261.853-.352.807-.8a2.865,2.865,0,0,1-1.689-.455,1.778,1.778,0,0,0-.409-.818,1.271,1.271,0,0,0-1.737-.178s-1.644-.292-2.115.293c0,0-3.442-.028-4,2.048,0,0-2.465.7-1.941,2.546a1.583,1.583,0,0,0,1.2,2.107,1.409,1.409,0,0,0,1.909-1.287s1.359.087,1.623,1.17c.018.07.033.141.046.209a8.177,8.177,0,0,0-3.426.406c-1.855.644-2.38.3-2.807-.127s-.425-1.1.251-1.8a1.248,1.248,0,0,0-1.739.733c-.59,1.517.889,2.337,2.089,2.34a13.764,13.764,0,0,0,3.323-.761,5.887,5.887,0,0,1,2.323-.079.844.844,0,0,1-.793.751c-.621.059-1.36-.314-1.986.014a.827.827,0,0,0,.212,1.414c.656.254.949-.462,1.4-.359a.657.657,0,0,1,.456.8c-.124.395-1.176,1.376-3.2-.116a3.063,3.063,0,0,0-1.148-.585V11.38a2.362,2.362,0,0,1-2.147-.885s-1.066.278-1.074,1.133a9.568,9.568,0,0,1-3.778-2.238,21.365,21.365,0,0,1-2.32-2.867,1.309,1.309,0,0,1,.031-1.573.883.883,0,0,0-.385-1.294s-.306-1.067-1.243-1.146a1.647,1.647,0,0,0-1.432.589s.864.465.811.808a1,1,0,0,1-.327.524.744.744,0,0,0-.779-.6s-.808-1.105-1.824-.5a1.361,1.361,0,0,0-.559,1.17s.971-.087.941.175a.9.9,0,0,0-.113,1.111,1.781,1.781,0,0,0,.819.616s-1.095-.292-1.47.352a1.48,1.48,0,0,0-1.272,1.8,2.939,2.939,0,0,0,.655,1.091s-.131-.906.574-1a.991.991,0,0,0,1.134.324.887.887,0,0,0,.439,1.257.934.934,0,0,1-.913.468s.74,1.247,1.619,1.009a2,2,0,0,0,1.029-1.009l.221-.218s1.714,2.529,1.328,3.992c0,0,.958.2,1.272-.409,0,0,.5,1.959-.264,2.983,0,0,1.264.44,1.675-.381,0,0,1,1.405-.293,1.639l.235.616a13,13,0,0,1-3.735,1.9c-1.765.437-1.745.836-2.443.116-.552-.572-.854-.206-.854-.206a1.59,1.59,0,0,0-2.176,1.023s.972-.056,1.091.234c0,0-.11.834.5.908,0,0-1.093.1-.94,1.1,0,0-1.568.7.2,2.438,0,0,.147-.906.53-.966,0,0,.361.286.618,0a1.086,1.086,0,0,0,.264,1.522s-.2,1.111,1.281,1.271a2.713,2.713,0,0,1,.25-1.184.933.933,0,0,0,.766-1.026.626.626,0,0,1,.147-.557s.206.7.852.527a4.091,4.091,0,0,0,.53.9s.971-.374.94-1.2a1,1,0,0,0,.411-1.553,3.411,3.411,0,0,1,3.763.526.66.66,0,0,0,.619-.715s1.072.395,1.093,1.09c0,0,1.052-.378.993-1.254,0,0,1.824-.264,2.088.674a.926.926,0,0,0,.588-.936s1.734,2.546,7,3.014l-.488.482-.159.162s-3.953-.207-5.619.641-2.8,1.477-3.079,4.863a2.464,2.464,0,0,1-.594,1.837s.325.527.764.527a2.781,2.781,0,0,1-1.884,1.114c-1.354.235-1.587.08-1.8-.221a.744.744,0,0,0-1.046-.264,1.455,1.455,0,0,0-.619-.338,1.268,1.268,0,0,0-1.527,1.319s.765-.206,1,0l.119.526s-1.183-.585-1.642.324c0,0-2.385.585-.681,2.837,0,0,.267-.936.869-.86a.88.88,0,0,0,.927.216s-.662.951.207,1.463a1.657,1.657,0,0,0,.91,1.288s.766-.352.867-.863a1.413,1.413,0,0,0,1.25-1.653,2.628,2.628,0,0,0,.677-.206s.028.7,1.042,1.037a.687.687,0,0,1,0,.8s1.631,0,1.456-1.2c0,0,.56-.234.411-1.113a7.719,7.719,0,0,0,2.41-1.142l.382.677s1.1-.395,1.411-1.054l.148,1.226s2.588-1.739,2.44-3.6c-.13-1.666-.7-2.048-.675-2.6a2.122,2.122,0,0,1,2.53-1.638,5.08,5.08,0,0,0,.821,3.6c1.176,1.46,2.028,2.135,2.028,2.661v.849s1.059-.321,1.12-.555c0,0,.411,1.494,1.145,1.522a3.877,3.877,0,0,1,.913-1.229,4.3,4.3,0,0,1-1.142,2.706,2.763,2.763,0,0,1-2.625.92,1.112,1.112,0,0,0-1.324-.381,1.61,1.61,0,0,0-2,.586,1.962,1.962,0,0,0,0,1.55s.558-.818.911-.643c0,0,0,.585.5.644a1.069,1.069,0,0,0-.621,1.462s-1.529.936,0,2.312c0,0,.058-.643,1.073-1.067a1.379,1.379,0,0,0,1.307-.22l.647.646a2.4,2.4,0,0,1,.471,1.462s1.383-.564,1.351-1.522a1.206,1.206,0,0,0,.8-1.433s.765-.234.647-.906a.91.91,0,0,0,1.175.321s.793.352.778.775a1.307,1.307,0,0,0,.837-1.71.97.97,0,0,0-.351-1.405s1.175-.966,1.295-1.55c0,0,.463.643.757.643a1.284,1.284,0,0,0,.6-1.054,1.519,1.519,0,0,0,2.03-.557s-.913-.409-.411-2.106c0,0,.765-1.968-.359-2.6a2.42,2.42,0,0,0-2.554-.032s-2.181.739-2.058-2.34a2.938,2.938,0,0,1,1.615-2.255,5.53,5.53,0,0,0,4.705,0s1.47.653,2.3-.028c.926-.767,1.292-1.638,1.835-1.886,0,0-1.1-.615-1.544-.307,0,0,.853-.82.559-3.073s.529-2.137.985-2.926a2.966,2.966,0,0,0,0-2.072" transform="translate(-1031.253 0)"/></svg>