<?xml version="1.0" encoding="utf-8"?>
<!-- Generator: Adobe Illustrator 24.0.3, SVG Export Plug-In . SVG Version: 6.00 Build 0)  -->
<svg version="1.1" id="Layer_1" xmlns="http://www.w3.org/2000/svg" xmlns:xlink="http://www.w3.org/1999/xlink" x="0px" y="0px"
	 viewBox="0 0 126.9 40" style="enable-background:new 0 0 126.9 40;" xml:space="preserve">
<style type="text/css">
	.st0{fill-rule:evenodd;clip-rule:evenodd;fill:#FFFFFF;filter:url(#Adobe_OpacityMaskFilter);}
	.st1{mask:url(#mask0_1_);}
	.st2{fill-rule:evenodd;clip-rule:evenodd;fill:#645A53;}
	.st3{fill-rule:evenodd;clip-rule:evenodd;fill:#EA5252;}
</style>
<defs>
	<filter id="Adobe_OpacityMaskFilter" filterUnits="userSpaceOnUse" x="46.6" y="13.4" width="64.3" height="17.3">
		<feColorMatrix  type="matrix" values="1 0 0 0 0  0 1 0 0 0  0 0 1 0 0  0 0 0 1 0"/>
	</filter>
</defs>
<mask maskUnits="userSpaceOnUse" x="46.6" y="13.4" width="64.3" height="17.3" id="mask0_1_">
	<path class="st0" d="M110.9,30.7V13.4H46.6v17.3H110.9L110.9,30.7z"/>
</mask>
<g class="st1">
	<path class="st2" d="M102.3,30.7h3.2l5.5-13.2h-3.1l-2.3,6.6l-2.4-6.6h-3.5l4.2,9.5L102.3,30.7z M86.5,20.6v6.8h-3.2v-9.9h2.2
		l0.7,0.9c0.9-0.7,1.8-1.1,2.9-1.1c1.4,0,2.5,0.4,3.2,1.4c1-0.8,2-1.4,3.3-1.4c2.5,0,3.9,1.2,3.9,4.5v5.6h-3.2v-5.3
		c0-1.5-0.6-2-1.7-2c-0.6,0-1.1,0.2-1.7,0.5c0,0.3,0.1,0.7,0.1,1.1v5.6h-3.2v-5.3c0-1.5-0.6-2-1.7-2C87.6,20.1,87.1,20.3,86.5,20.6
		L86.5,20.6z M75.4,21.5h4.1c-0.2-1.3-1-1.9-2-1.9C76.5,19.6,75.6,20.1,75.4,21.5L75.4,21.5z M77.7,27.6c-3.1,0-5.5-1.4-5.5-5.3
		c0-3.6,2.4-5.1,5.1-5.1c3.3,0,4.8,2.2,4.8,5.7h-6.7c0.2,1.7,1.3,2.2,2.8,2.2c1.4,0,2.5-0.3,3.4-0.9l-0.4,2.4
		C80.3,27.3,79.3,27.6,77.7,27.6L77.7,27.6z M65.8,25c0.7,0,1.3-0.1,1.8-0.5v-4.3c-0.5-0.3-1-0.4-1.7-0.4c-1.6,0-2.4,1-2.4,2.7
		C63.4,24.1,64.3,25,65.8,25L65.8,25z M68.2,26.7c-0.8,0.6-1.8,1-3.1,1c-2.9,0-4.9-1.7-4.9-5.1c0-3.4,2.4-5.3,5.4-5.3
		c0.7,0,1.4,0.1,2,0.3v-4.2h3.2v14h-2L68.2,26.7z M46.6,21.5v-7.3h3.3v7.3c0,2.6,1.2,3.2,2.9,3.2c1.8,0,2.8-0.8,2.8-3.2v-7.3H59v7.3
		c0,4.3-2,6.1-6.3,6.1C48.7,27.7,46.6,26.1,46.6,21.5L46.6,21.5z"/>
</g>
<path class="st3" d="M37.4,22.1c-0.1-0.1-0.3-0.2-0.4-0.2c-1,0.9-2.1,1.9-3.2,2.6c-0.5,0.3-1.1,0.5-1.5,0.5c-0.9,0-1.3-0.9-1.4-2.2
	c-0.2-1.8-0.3-4-0.3-7.4c0-3.4-0.8-5.8-3-6c-0.1,0-0.2,0-0.3,0c-1.3,0-2,0.7-2.8,2.3c-0.7,1.4-1.9,3.5-3.9,7.5
	c-1.8,3.4-3.8,6.4-5.6,8.5c-0.5,0.6-0.9,1-1.2,1.2c-0.2,0.2-0.5,0.2-0.7,0.2c-0.7,0-1.2-0.6-1.3-1.8c0-0.3-0.1-0.7-0.1-1
	c0-2.7,1-7,2.9-13.4C15.8,8.2,15.3,5,12.4,5c0,0,0,0,0,0c0,0,0,0,0,0l0,0c-0.7,0-1.2,0.2-1.7,0.6C10.1,6,9.6,6.9,9.1,8
	C8.6,9.3,5.3,15.7,0,19c-0.1,1.3,0.7,2.5,2.2,2.6c1.4,0.1,2.3-0.4,3.6-1.2c-0.1,0.4-0.2,0.8-0.3,1.1c-0.1,0.4-0.2,0.8-0.2,1
	c-0.1,0.4-0.2,0.7-0.2,0.8c-0.2,0.8-0.3,1.5-0.4,2.2C3.9,31.8,7,35,10.6,35c0.6,0,1.2-0.1,1.8-0.2c4-1,7.8-5.4,12.3-15.4
	c-0.1,1.1-0.1,2.1,0,3.1c0.3,5.8,2.7,7.5,6,7.5c2.5,0,4.9-1.3,6.1-2.9c0.9-1.1,1.2-2.4,1.2-3.3C38.1,23,37.8,22.4,37.4,22.1"/>
</svg>
